# WaveFront *.obj file (generated by Autodesk ATF)

mtllib Surmount Piece.mtl

g Solid1

v -1.000000 0.000000 -1.000000
v -1.000000 0.000000 0.000000
v -1.000000 1.000000 -1.000000
v -1.000000 1.000000 0.000000
v -0.880000 0.000000 -0.880000
v -0.880000 0.000000 -0.120000
v -0.880000 0.130000 -0.880000
v -0.880000 0.130000 -0.120000
v -0.875000 1.000000 -0.875000
v -0.875000 1.000000 -0.125000
v -0.875000 1.125000 -0.875000
v -0.875000 1.125000 -0.125000
v -0.125000 1.000000 -0.875000
v -0.125000 1.000000 -0.125000
v -0.125000 1.125000 -0.875000
v -0.125000 1.125000 -0.125000
v -0.120000 0.000000 -0.880000
v -0.120000 0.000000 -0.120000
v -0.120000 0.130000 -0.880000
v -0.120000 0.130000 -0.120000
v 0.000000 0.000000 -1.000000
v 0.000000 0.000000 0.000000
v 0.000000 1.000000 -1.000000
v 0.000000 1.000000 0.000000
vt 0.000000 0.000000 0.000000
vt 2.540000 0.000000 0.000000
vt 2.540000 2.540000 0.000000
vt 0.000000 2.540000 0.000000
vt 0.000000 0.000000 0.000000
vt 2.540000 0.000000 0.000000
vt 2.540000 2.540000 0.000000
vt 0.000000 2.540000 0.000000
vt 0.000000 0.000000 0.000000
vt 2.540000 0.000000 0.000000
vt 2.540000 2.540000 0.000000
vt 0.000000 2.540000 0.000000
vt 0.000000 0.000000 0.000000
vt 2.540000 0.000000 0.000000
vt 2.540000 2.540000 0.000000
vt 0.000000 2.540000 0.000000
vt -0.952500 0.952500 0.000000
vt 0.952500 0.952500 0.000000
vt 0.952500 -0.952500 0.000000
vt -0.952500 -0.952500 0.000000
vt -1.270000 1.270000 0.000000
vt -1.270000 -1.270000 0.000000
vt 1.270000 -1.270000 0.000000
vt 1.270000 1.270000 0.000000
vt 0.965200 0.965200 0.000000
vt 0.965200 -0.965200 0.000000
vt -0.965200 -0.965200 0.000000
vt -0.965200 0.965200 0.000000
vt 1.270000 -1.270000 0.000000
vt 1.270000 1.270000 0.000000
vt -1.270000 1.270000 0.000000
vt -1.270000 -1.270000 0.000000
vt 0.000000 0.000000 0.000000
vt 1.905000 0.000000 0.000000
vt 1.905000 0.317500 0.000000
vt 0.000000 0.317500 0.000000
vt 0.000000 0.000000 0.000000
vt 1.905000 0.000000 0.000000
vt 1.905000 0.317500 0.000000
vt 0.000000 0.317500 0.000000
vt 0.000000 0.000000 0.000000
vt 1.905000 0.000000 0.000000
vt 1.905000 0.317500 0.000000
vt 0.000000 0.317500 0.000000
vt 0.000000 0.000000 0.000000
vt 1.905000 0.000000 0.000000
vt 1.905000 0.317500 0.000000
vt 0.000000 0.317500 0.000000
vt -0.952500 0.952500 0.000000
vt -0.952500 -0.952500 0.000000
vt 0.952500 -0.952500 0.000000
vt 0.952500 0.952500 0.000000
vt -1.930400 0.000000 0.000000
vt -0.000000 0.000000 0.000000
vt -0.000000 0.330200 0.000000
vt -1.930400 0.330200 0.000000
vt -1.930400 0.000000 0.000000
vt -0.000000 0.000000 0.000000
vt -0.000000 0.330200 0.000000
vt -1.930400 0.330200 0.000000
vt -1.930400 0.000000 0.000000
vt -0.000000 0.000000 0.000000
vt -0.000000 0.330200 0.000000
vt -1.930400 0.330200 0.000000
vt -1.930400 0.000000 0.000000
vt -0.000000 0.000000 0.000000
vt -0.000000 0.330200 0.000000
vt -1.930400 0.330200 0.000000
vt -0.965200 -0.965200 0.000000
vt 0.965200 -0.965200 0.000000
vt 0.965200 0.965200 0.000000
vt -0.965200 0.965200 0.000000
vn 2.540000 0.000000 0.000000
vn 2.540000 0.000000 0.000000
vn 2.540000 0.000000 0.000000
vn 2.540000 0.000000 0.000000
vn 0.000000 0.000000 2.540000
vn 0.000000 0.000000 2.540000
vn 0.000000 0.000000 2.540000
vn 0.000000 0.000000 2.540000
vn -2.540000 0.000000 0.000000
vn -2.540000 0.000000 0.000000
vn -2.540000 0.000000 0.000000
vn -2.540000 0.000000 0.000000
vn 0.000000 0.000000 -2.540000
vn 0.000000 0.000000 -2.540000
vn 0.000000 0.000000 -2.540000
vn 0.000000 0.000000 -2.540000
vn 0.000000 2.540000 0.000000
vn 0.000000 2.540000 0.000000
vn 0.000000 2.540000 0.000000
vn 0.000000 2.540000 0.000000
vn 0.000000 2.540000 0.000000
vn 0.000000 2.540000 0.000000
vn 0.000000 2.540000 0.000000
vn 0.000000 2.540000 0.000000
vn 0.000000 -2.540000 0.000000
vn 0.000000 -2.540000 0.000000
vn 0.000000 -2.540000 0.000000
vn 0.000000 -2.540000 0.000000
vn 0.000000 -2.540000 0.000000
vn 0.000000 -2.540000 0.000000
vn 0.000000 -2.540000 0.000000
vn 0.000000 -2.540000 0.000000
vn 2.540000 0.000000 0.000000
vn 2.540000 0.000000 0.000000
vn 2.540000 0.000000 0.000000
vn 2.540000 0.000000 0.000000
vn 0.000000 0.000000 2.540000
vn 0.000000 0.000000 2.540000
vn 0.000000 0.000000 2.540000
vn 0.000000 0.000000 2.540000
vn -2.540000 0.000000 0.000000
vn -2.540000 0.000000 0.000000
vn -2.540000 0.000000 0.000000
vn -2.540000 0.000000 0.000000
vn 0.000000 0.000000 -2.540000
vn 0.000000 0.000000 -2.540000
vn 0.000000 0.000000 -2.540000
vn 0.000000 0.000000 -2.540000
vn 0.000000 2.540000 0.000000
vn 0.000000 2.540000 0.000000
vn 0.000000 2.540000 0.000000
vn 0.000000 2.540000 0.000000
vn 0.000000 0.000000 2.540000
vn 0.000000 0.000000 2.540000
vn 0.000000 0.000000 2.540000
vn 0.000000 0.000000 2.540000
vn -2.540000 0.000000 0.000000
vn -2.540000 0.000000 0.000000
vn -2.540000 0.000000 0.000000
vn -2.540000 0.000000 0.000000
vn 0.000000 0.000000 -2.540000
vn 0.000000 0.000000 -2.540000
vn 0.000000 0.000000 -2.540000
vn 0.000000 0.000000 -2.540000
vn 2.540000 0.000000 0.000000
vn 2.540000 0.000000 0.000000
vn 2.540000 0.000000 0.000000
vn 2.540000 0.000000 0.000000
vn 0.000000 -2.540000 0.000000
vn 0.000000 -2.540000 0.000000
vn 0.000000 -2.540000 0.000000
vn 0.000000 -2.540000 0.000000
usemtl 191,191,191
f 22/1/1 21/2/2 24/4/4
f 24/4/4 21/2/2 23/3/3
f 2/5/5 22/6/6 4/8/8
f 4/8/8 22/6/6 24/7/7
f 1/9/9 2/10/10 3/12/12
f 3/12/12 2/10/10 4/11/11
f 21/13/13 1/14/14 23/16/16
f 23/16/16 1/14/14 3/15/15
f 14/18/18 23/21/21 13/17/17
f 13/17/17 23/21/21 3/22/22
f 13/17/17 3/22/22 9/20/20
f 9/20/20 3/22/22 4/23/23
f 9/20/20 4/23/23 10/19/19
f 10/19/19 4/23/23 14/18/18
f 14/18/18 4/23/23 24/24/24
f 14/18/18 24/24/24 23/21/21
f 5/26/26 1/29/29 17/25/25
f 17/25/25 1/29/29 21/30/30
f 17/25/25 21/30/30 22/31/31
f 5/26/26 6/27/27 1/29/29
f 1/29/29 6/27/27 2/32/32
f 2/32/32 6/27/27 18/28/28
f 2/32/32 18/28/28 22/31/31
f 22/31/31 18/28/28 17/25/25
f 14/33/33 13/34/34 16/36/36
f 16/36/36 13/34/34 15/35/35
f 10/37/37 14/38/38 12/40/40
f 12/40/40 14/38/38 16/39/39
f 9/41/41 10/42/42 11/44/44
f 11/44/44 10/42/42 12/43/43
f 13/45/45 9/46/46 15/48/48
f 15/48/48 9/46/46 11/47/47
f 11/50/50 12/51/51 15/49/49
f 15/49/49 12/51/51 16/52/52
f 5/53/53 17/54/54 7/56/56
f 7/56/56 17/54/54 19/55/55
f 17/57/57 18/58/58 19/60/60
f 19/60/60 18/58/58 20/59/59
f 18/61/61 6/62/62 20/64/64
f 20/64/64 6/62/62 8/63/63
f 6/65/65 5/66/66 8/68/68
f 8/68/68 5/66/66 7/67/67
f 8/69/69 7/70/70 20/72/72
f 20/72/72 7/70/70 19/71/71

# 24 vertices
# 72 texture params
# 72 normals
# 44 facets

# 1 groups
